<?xml version="1.0" ?><svg fill="none" height="24" viewBox="0 0 24 24" width="24" xmlns="http://www.w3.org/2000/svg"><g id="Cashier"><path clip-rule="evenodd" d="M0.25 17C0.25 16.5858 0.585786 16.25 1 16.25H23C23.4142 16.25 23.75 16.5858 23.75 17V20C23.75 20.4142 23.4142 20.75 23 20.75H1C0.585786 20.75 0.25 20.4142 0.25 20V17ZM1.75 17.75V19.25H22.25V17.75H1.75Z" fill="black" fill-rule="evenodd" id="Rectangle 24 (Stroke)"/><path clip-rule="evenodd" d="M11.25 12C11.25 11.5858 11.5858 11.25 12 11.25H22C22.4142 11.25 22.75 11.5858 22.75 12V17C22.75 17.4142 22.4142 17.75 22 17.75H12C11.5858 17.75 11.25 17.4142 11.25 17V12ZM12.75 12.75V16.25H21.25V12.75H12.75Z" fill="black" fill-rule="evenodd" id="Rectangle 25 (Stroke)"/><path clip-rule="evenodd" d="M13.25 7C13.25 6.58579 13.5858 6.25 14 6.25H20C20.4142 6.25 20.75 6.58579 20.75 7V9C20.75 9.41421 20.4142 9.75 20 9.75H14C13.5858 9.75 13.25 9.41421 13.25 9V7ZM14.75 7.75V8.25H19.25V7.75H14.75Z" fill="black" fill-rule="evenodd" id="Rectangle 26 (Stroke)"/><path clip-rule="evenodd" d="M17 8.25C17.4142 8.25 17.75 8.58579 17.75 9V12C17.75 12.4142 17.4142 12.75 17 12.75C16.5858 12.75 16.25 12.4142 16.25 12V9C16.25 8.58579 16.5858 8.25 17 8.25Z" fill="black" fill-rule="evenodd" id="Vector 37 (Stroke)"/><path clip-rule="evenodd" d="M5 12.75C3.75736 12.75 2.75 13.7574 2.75 15V16.5C2.75 16.9142 2.41421 17.25 2 17.25C1.58579 17.25 1.25 16.9142 1.25 16.5V15C1.25 12.9289 2.92893 11.25 5 11.25H9C9.41421 11.25 9.75 11.5858 9.75 12C9.75 12.4142 9.41421 12.75 9 12.75H5Z" fill="black" fill-rule="evenodd" id="Vector 38 (Stroke)"/><path clip-rule="evenodd" d="M6.5 5.75C5.5335 5.75 4.75 6.5335 4.75 7.5C4.75 8.4665 5.5335 9.25 6.5 9.25C7.4665 9.25 8.25 8.4665 8.25 7.5C8.25 6.5335 7.4665 5.75 6.5 5.75ZM3.25 7.5C3.25 5.70507 4.70507 4.25 6.5 4.25C8.29493 4.25 9.75 5.70507 9.75 7.5C9.75 9.29493 8.29493 10.75 6.5 10.75C4.70507 10.75 3.25 9.29493 3.25 7.5Z" fill="black" fill-rule="evenodd" id="Ellipse 15 (Stroke)"/></g></svg>