<?xml version="1.0" ?><!DOCTYPE svg  PUBLIC '-//W3C//DTD SVG 1.1//EN'  'http://www.w3.org/Graphics/SVG/1.1/DTD/svg11.dtd'><svg height="512px" style="enable-background:new 0 0 512 512;" version="1.1" viewBox="0 0 512 512" width="512px" xml:space="preserve" xmlns="http://www.w3.org/2000/svg" xmlns:xlink="http://www.w3.org/1999/xlink"><g id="_x35_77_x2C__box_x2C__labyrinth_x2C__puzzle_x2C__solution_x2C__cube"><g><path d="M259.121,310.119v91.213l71.093-19.105v-91.213L259.121,310.119z     M407.573,270.233l-71.118,19.106v91.213l71.118-19.436V270.233z M407.573,172.551l-71.118,19.105v91.213l71.118-19.41V172.551z     M330.228,191.656l-71.106-19.105v91.238l71.106,19.105V191.656z M333.336,150.96l-64.725,17.38l-0.609,0.152l65.334,17.557    l65.345-17.557L333.336,150.96z M252.88,172.551l-71.118,19.105v91.238l71.118-19.105V172.551z M244,168.492l-0.735-0.178    l-64.61-17.354l-65.347,17.532l65.347,17.557L244,168.492z M181.774,291.014v91.213l71.106,19.105v-91.213L181.774,291.014z     M104.428,263.333l71.104,19.536v-91.213l-71.104-19.105V263.333z M104.428,270.233v90.757l71.104,19.563V289.34L104.428,270.233z     M321.334,147.737L256,130.18l-65.345,17.558L256,165.27L321.334,147.737z M249.76,32.243c0-1.7,0.709-3.272,1.827-4.415    c1.141-1.142,2.688-1.826,4.413-1.826c1.7,0,3.26,0.685,4.391,1.826c1.142,1.143,1.851,2.715,1.851,4.415v24.281    c0,1.726-0.709,3.272-1.826,4.39c-1.155,1.141-2.715,1.852-4.415,1.852c-1.725,0-3.272-0.711-4.401-1.826    c-1.13-1.143-1.839-2.689-1.839-4.415V32.243z M362.501,59.088c0.85-1.473,2.245-2.487,3.768-2.894    c1.535-0.406,3.233-0.228,4.719,0.634c1.484,0.863,2.486,2.26,2.894,3.781c0.418,1.522,0.252,3.222-0.623,4.719l-12.14,21.034    c-0.863,1.497-2.259,2.486-3.781,2.893c-1.536,0.405-3.233,0.253-4.719-0.61c-1.484-0.861-2.486-2.257-2.892-3.779    c-0.42-1.547-0.254-3.223,0.621-4.719L362.501,59.088z M446.673,138.73c1.484-0.863,3.184-1.041,4.719-0.635    c1.522,0.406,2.918,1.422,3.768,2.918c0.875,1.472,1.04,3.172,0.623,4.694c-0.394,1.548-1.409,2.942-2.894,3.779l-21.033,12.153    c-1.496,0.863-3.197,1.041-4.72,0.635c-1.521-0.405-2.917-1.42-3.78-2.893c-0.863-1.497-1.04-3.196-0.635-4.719    c0.407-1.522,1.421-2.918,2.906-3.781L446.673,138.73z M479.759,249.758c1.698,0,3.272,0.711,4.389,1.828    c1.143,1.142,1.852,2.715,1.852,4.414c0,1.7-0.709,3.273-1.827,4.39c-1.141,1.142-2.715,1.853-4.413,1.853h-24.295    c-1.712,0-3.26-0.711-4.402-1.827c-1.141-1.142-1.839-2.715-1.839-4.415c0-1.699,0.698-3.272,1.826-4.414    c1.155-1.117,2.703-1.828,4.415-1.828H479.759z M452.889,362.486c1.484,0.863,2.5,2.259,2.894,3.781    c0.417,1.522,0.252,3.223-0.609,4.719c-0.863,1.498-2.259,2.487-3.781,2.894c-1.535,0.405-3.234,0.253-4.719-0.61l-21.046-12.152    c-1.485-0.863-2.499-2.258-2.893-3.78c-0.419-1.522-0.242-3.223,0.621-4.72c0.863-1.471,2.259-2.486,3.78-2.893    c1.522-0.405,3.224-0.254,4.72,0.609L452.889,362.486z M373.258,446.672c0.875,1.472,1.041,3.197,0.623,4.72    c-0.407,1.522-1.409,2.917-2.894,3.78c-1.497,0.862-3.184,1.015-4.719,0.609c-1.522-0.406-2.918-1.396-3.768-2.893l-12.153-21.034    c-0.875-1.496-1.041-3.196-0.621-4.719c0.405-1.522,1.407-2.918,2.892-3.781c1.485-0.862,3.183-1.04,4.719-0.634    c1.522,0.406,2.918,1.421,3.768,2.918L373.258,446.672z M262.241,479.757c0,1.7-0.709,3.273-1.826,4.39    c-1.155,1.143-2.715,1.853-4.415,1.853c-1.725,0-3.272-0.71-4.401-1.827c-1.13-1.142-1.839-2.715-1.839-4.415v-24.306    c0-1.7,0.709-3.248,1.827-4.39c1.141-1.142,2.688-1.827,4.413-1.827c1.7,0,3.26,0.686,4.391,1.827    c1.142,1.142,1.851,2.689,1.851,4.39V479.757z M149.488,452.889c-0.849,1.496-2.246,2.486-3.767,2.893    c-1.536,0.405-3.236,0.253-4.721-0.609c-1.482-0.863-2.499-2.258-2.892-3.78c-0.417-1.522-0.24-3.223,0.621-4.72l12.153-21.059    c0.851-1.472,2.246-2.486,3.782-2.893c1.521-0.406,3.222-0.229,4.718,0.634c1.472,0.863,2.487,2.259,2.892,3.781    c0.407,1.522,0.23,3.223-0.634,4.719L149.488,452.889z M65.329,373.27c-1.497,0.863-3.197,1.016-4.718,0.61    c-1.536-0.406-2.918-1.396-3.782-2.894c-0.861-1.496-1.039-3.196-0.633-4.719s1.421-2.918,2.904-3.781l21.046-12.152    c1.484-0.863,3.185-1.015,4.72-0.609c1.521,0.406,2.917,1.422,3.768,2.893c0.875,1.497,1.041,3.197,0.621,4.72    c-0.405,1.522-1.407,2.917-2.892,3.78L65.329,373.27z M32.231,262.242c-1.713,0-3.261-0.711-4.401-1.827    c-1.13-1.142-1.829-2.715-1.829-4.415c0-1.699,0.698-3.272,1.829-4.414c1.14-1.117,2.688-1.828,4.401-1.828h24.294    c1.7,0,3.272,0.711,4.401,1.828c1.13,1.142,1.841,2.715,1.841,4.414c0,1.7-0.711,3.273-1.827,4.39    c-1.143,1.142-2.715,1.853-4.415,1.853H32.231z M59.1,149.487c-1.483-0.837-2.499-2.231-2.892-3.779    c-0.417-1.522-0.24-3.223,0.621-4.72c0.864-1.471,2.246-2.486,3.782-2.893c1.521-0.406,3.222-0.229,4.718,0.635l21.035,12.152    c1.484,0.863,2.486,2.259,2.892,3.781c0.419,1.522,0.254,3.222-0.621,4.719c-0.851,1.473-2.246,2.487-3.768,2.893    c-1.548,0.406-3.236,0.229-4.72-0.635L59.1,149.487z M138.73,65.328c-0.861-1.497-1.039-3.196-0.633-4.719    c0.405-1.521,1.421-2.918,2.904-3.781c1.485-0.861,3.185-1.04,4.721-0.634c1.521,0.406,2.918,1.421,3.767,2.894l12.153,21.059    c0.864,1.471,1.041,3.172,0.634,4.719c-0.405,1.522-1.42,2.918-2.904,3.756c-1.484,0.887-3.185,1.039-4.706,0.634    c-1.536-0.406-2.931-1.396-3.782-2.893L138.73,65.328z M190.655,286.955L256,304.486l65.334-17.531L256,269.396L190.655,286.955z" style="fill-rule:evenodd;clip-rule:evenodd;"/></g></g><g id="Layer_1"/></svg>