<?xml version="1.0" ?><svg enable-background="new 0 0 64 64" id="Layer_1" version="1.1" viewBox="0 0 64 64" xml:space="preserve" xmlns="http://www.w3.org/2000/svg" xmlns:xlink="http://www.w3.org/1999/xlink"><g><path d="M47,9c-0.0039063,0-0.0068359,0-0.0107422,0C43.2314453,3.9697266,37.3369141,1,31,1   c-9.6367188,0-17.7939453,6.8154297-19.6210938,16.1088867C5.5263672,17.902832,1,22.9326172,1,29c0,6.6166992,5.3828125,12,12,12   h20c1.1044922,0,2-0.8955078,2-2s-0.8955078-2-2-2H13c-4.4111328,0-8-3.5888672-8-8s3.5888672-8,8-8h0.1103516   c1.0195313,0,1.875-0.7661133,1.9873047-1.7792969C15.9990234,11.1137695,22.8349609,5,31,5   c5.375,0,10.3515625,2.6708984,13.3125,7.144043c0.4052734,0.6113281,1.1074219,0.9516602,1.8457031,0.8881836   C46.4384766,13.0073242,46.7197266,13,47,13c6.6171875,0,12,5.3833008,12,12s-5.3828125,12-12,12h-7c-1.1044922,0-2,0.8955078-2,2   s0.8955078,2,2,2h7c8.8222656,0,16-7.1777344,16-16S55.8222656,9,47,9z"/><path d="M32,44c-1.1044922,0-2,0.8955078-2,2v7c0,1.1044922,0.8955078,2,2,2s2-0.8955078,2-2v-7C34,44.8955078,33.1044922,44,32,44   z"/><path d="M32,58c-1.1044922,0-2,0.8955078-2,2v1c0,1.1044922,0.8955078,2,2,2s2-0.8955078,2-2v-1C34,58.8955078,33.1044922,58,32,58   z"/><path d="M51.2285156,53.137207l-4.9707031-1.9882813C45.4931641,50.8432617,45,50.1142578,45,49.2919922V46   c0-1.1044922-0.8955078-2-2-2s-2,0.8955078-2,2v3.2919922c0,2.4677734,1.4804688,4.6542969,3.7714844,5.5708008   l4.9707031,1.9882813C50.5068359,57.1567383,51,57.8857422,51,58.7080078V61c0,1.1044922,0.8955078,2,2,2s2-0.8955078,2-2   v-2.2919922C55,56.2402344,53.5195313,54.0537109,51.2285156,53.137207z"/><path d="M21,44c-1.1044922,0-2,0.8955078-2,2v3.2919922c0,0.8222656-0.4931641,1.5512695-1.2578125,1.8569336l-4.9707031,1.9882813   C10.4804688,54.0537109,9,56.2402344,9,58.7080078V61c0,1.1044922,0.8955078,2,2,2s2-0.8955078,2-2v-2.2919922   c0-0.8222656,0.4931641-1.5512695,1.2578125-1.8569336l4.9707031-1.9882813C21.5195313,53.9462891,23,51.7597656,23,49.2919922V46   C23,44.8955078,22.1044922,44,21,44z"/></g></svg>